<?xml version="1.0" encoding="UTF-8" standalone="no"?>
<!--Generated by Ulead PhotoImpact-->
<svg
   xmlns:dc="http://purl.org/dc/elements/1.1/"
   xmlns:cc="http://creativecommons.org/ns#"
   xmlns:rdf="http://www.w3.org/1999/02/22-rdf-syntax-ns#"
   xmlns:svg="http://www.w3.org/2000/svg"
   xmlns="http://www.w3.org/2000/svg"
   xmlns:sodipodi="http://sodipodi.sourceforge.net/DTD/sodipodi-0.dtd"
   xmlns:inkscape="http://www.inkscape.org/namespaces/inkscape"
   width="210px"
   height="304px"
   id="svg2473"
   sodipodi:version="0.32"
   inkscape:version="0.46"
   sodipodi:docname="GenericIC.svg"
   inkscape:output_extension="org.inkscape.output.svg.inkscape">
  <metadata
     id="metadata2506">
    <rdf:RDF>
      <cc:Work
         rdf:about="">
        <dc:format>image/svg+xml</dc:format>
        <dc:type
           rdf:resource="http://purl.org/dc/dcmitype/StillImage" />
      </cc:Work>
    </rdf:RDF>
  </metadata>
  <defs
     id="defs2504">
    <inkscape:perspective
       sodipodi:type="inkscape:persp3d"
       inkscape:vp_x="0 : 152 : 1"
       inkscape:vp_y="0 : 1000 : 0"
       inkscape:vp_z="210 : 152 : 1"
       inkscape:persp3d-origin="105 : 101.33333 : 1"
       id="perspective2508" />
  </defs>
  <sodipodi:namedview
     inkscape:window-height="975"
     inkscape:window-width="1280"
     inkscape:pageshadow="2"
     inkscape:pageopacity="0.0"
     guidetolerance="10.0"
     gridtolerance="10.0"
     objecttolerance="10.0"
     borderopacity="1.0"
     bordercolor="#666666"
     pagecolor="#ffffff"
     id="base"
     showgrid="false"
     inkscape:zoom="1.5197368"
     inkscape:cx="105"
     inkscape:cy="152"
     inkscape:window-x="-4"
     inkscape:window-y="-4"
     inkscape:current-layer="svg2473" />
  <rect
     id="BGCOLOR"
     style="fill:#ffffff"
     width="210"
     height="304" />
  <path
     d="m 183 269l -152 0 0 -239 152 0 0 239 z"
     id="PATH1"
     style="fill:none;stroke:#000000;stroke-width:4;stroke-miterlimit:100" />
  <path
     d="m 31 53l -19 0 0 -14 19 0 0 14 z"
     id="PATH2"
     style="fill:none;stroke:#000000;stroke-width:4;stroke-miterlimit:100" />
  <path
     d="m 30 102l -19 0 0 -14 19 0 0 14 z"
     id="PATH3"
     style="fill:none;stroke:#000000;stroke-width:4;stroke-miterlimit:100" />
  <path
     d="m 30 153l -19 0 0 -14 19 0 0 14 z"
     id="PATH4"
     style="fill:none;stroke:#000000;stroke-width:4;stroke-miterlimit:100" />
  <path
     d="m 30 205l -19 0 0 -14 19 0 0 14 z"
     id="PATH5"
     style="fill:none;stroke:#000000;stroke-width:4;stroke-miterlimit:100" />
  <path
     d="m 31 258l -19 0 0 -14 19 0 0 14 z"
     id="PATH6"
     style="fill:none;stroke:#000000;stroke-width:4;stroke-miterlimit:100" />
  <path
     d="m 203 53l -19 0 0 -14 19 0 0 14 z"
     id="PATH7"
     style="fill:none;stroke:#000000;stroke-width:4;stroke-miterlimit:100" />
  <path
     d="m 202 102l -19 0 0 -14 19 0 0 14 z"
     id="PATH8"
     style="fill:none;stroke:#000000;stroke-width:4;stroke-miterlimit:100" />
  <path
     d="m 202 153l -19 0 0 -14 19 0 0 14 z"
     id="PATH9"
     style="fill:none;stroke:#000000;stroke-width:4;stroke-miterlimit:100" />
  <path
     d="m 202 205l -19 0 0 -14 19 0 0 14 z"
     id="PATH10"
     style="fill:none;stroke:#000000;stroke-width:4;stroke-miterlimit:100" />
  <path
     d="m 203 258l -19 0 0 -14 19 0 0 14 z"
     id="PATH11"
     style="fill:none;stroke:#000000;stroke-width:4;stroke-miterlimit:100" />
  <text
     x="96"
     y="144.19"
     id="TEXT12"
     style="font-family:'Arial';font-size:24px;kerning:0;fill:#000000"
     xml:space="preserve">IC</text>
  <text
     x="38"
     y="53.139999"
     id="TEXT13"
     style="font-size:18px;fill:#000000;font-family:Arial"
     xml:space="preserve">A</text>
  <text
     x="38"
     y="255.14"
     id="TEXT14"
     style="font-size:18px;fill:#000000;font-family:Arial"
     xml:space="preserve">GND</text>
  <text
     x="161"
     y="258.14001"
     id="TEXT15"
     style="font-size:18px;fill:#000000;font-family:Arial"
     xml:space="preserve">H</text>
  <text
     x="162"
     y="152.14"
     id="TEXT16"
     style="font-size:18px;fill:#000000;font-family:Arial"
     xml:space="preserve">F</text>
  <text
     x="39"
     y="207.14"
     id="TEXT17"
     style="font-size:18px;fill:#000000;font-family:Arial"
     xml:space="preserve">D</text>
  <text
     x="39"
     y="105"
     id="TEXT18"
     style="font-size:18px;fill:#000000;font-family:Arial"
     xml:space="preserve">B</text>
  <text
     x="39"
     y="153"
     id="TEXT19"
     style="font-size:18px;fill:#000000;font-family:Arial"
     xml:space="preserve">C</text>
  <text
     x="161"
     y="207.92"
     id="TEXT20"
     style="font-size:18px;fill:#000000;font-family:Arial"
     xml:space="preserve">G</text>
  <text
     x="162"
     y="100.92"
     id="TEXT21"
     style="font-size:18px;fill:#000000;font-family:Arial"
     xml:space="preserve">E</text>
  <text
     x="148.07793"
     y="51.823982"
     id="TEXT23"
     style="font-size:18px;fill:#000000;font-family:Arial"
     xml:space="preserve">Vcc</text>
</svg>
